<svg xmlns="http://www.w3.org/2000/svg" xmlns:xlink="http://www.w3.org/1999/xlink" version="1.1" xml:space="preserve" viewBox="282.53 90.09 131.81 434.1">
<desc>Created with Fabric.js 5.3.0</desc>
<defs>
</defs>
<g transform="matrix(1 0 0 1 349.2837049675 370.4556991233)" id="l99ZHk3fynAt8KAej5Xx1">
<path style="stroke: rgb(0,0,0); stroke-width: 0; stroke-dasharray: none; stroke-linecap: butt; stroke-dashoffset: 0; stroke-linejoin: miter; stroke-miterlimit: 4; fill: rgb(255,172,0); fill-rule: nonzero; opacity: 1;" transform=" translate(0, 0)" d="M 4.15151 153.66696 C -30.239359999999998 156.43194 -52.91486 60.325379999999996 -55.468939999999996 41.35676999999998 C -58.02301 22.388149999999982 -75.69181999999999 -116.58439000000001 -55.468939999999996 -148.05345000000003 C -52.143879999999996 -153.22761000000003 -0.5953199999999939 -153.72545000000002 -0.5953199999999939 -153.72545000000002 C -0.5953199999999939 -153.72545000000002 52.930780000000006 -152.60434000000004 58.94874000000001 -148.05345000000003 C 76.04678000000001 -135.12362000000002 51.79108000000001 56.62394999999998 51.79108000000001 56.62394999999998 C 51.79108000000001 56.62394999999998 38.54238000000001 150.90198999999998 4.151510000000009 153.66697 z" stroke-linecap="round"/>
</g>
<g transform="matrix(1 0 0 1 312.3342615293 369.6992337033)" id="zcyFm7SjbzmM_RMUwP6YA">
<path style="stroke: rgb(0,0,0); stroke-width: 0; stroke-dasharray: none; stroke-linecap: butt; stroke-dashoffset: 0; stroke-linejoin: miter; stroke-miterlimit: 4; fill: rgb(255,200,87); fill-rule: nonzero; opacity: 1;" transform=" translate(0, 0)" d="M -5.96214 -150.02933 C -5.96214 -150.02933 -21.5944 -82.71991999999999 -12.05242 -8.10159999999999 C -2.510439999999999 66.51672 36.608630000000005 149.58835000000002 28.77527 150.3107 C 20.94191 151.03305 0.3266399999999976 116.53887 -9.137030000000003 84.85455999999999 C -18.600700000000003 53.170249999999996 -22.910410000000002 42.781679999999994 -28.102410000000003 -16.321210000000008 C -33.29441 -75.42410000000001 -25.502620000000004 -141.26843000000002 -19.583310000000004 -146.54385000000002 C -13.664000000000005 -151.81927000000002 -5.962140000000005 -150.02934000000002 -5.962140000000005 -150.02934000000002 z" stroke-linecap="round"/>
</g>
<g transform="matrix(1 0 0 1 327.7953025142 195.1077892396)" id="5fHnWF5P5W8FomRH-i0oO">
<path style="stroke: rgb(0,0,0); stroke-width: 0; stroke-dasharray: none; stroke-linecap: butt; stroke-dashoffset: 0; stroke-linejoin: miter; stroke-miterlimit: 4; fill: rgb(25,144,25); fill-rule: nonzero; opacity: 1;" transform=" translate(0, 0)" d="M 1.02981 22.11446 L -11.00132 -18.187489999999997 C -11.00132 -18.187489999999997 -11.32668 -23.842629999999996 -2.1161399999999997 -21.580209999999997 C 7.0944 -19.31779 11.002740000000001 22.114460000000005 11.002740000000001 22.114460000000005" stroke-linecap="round"/>
</g>
<g transform="matrix(1 0 0 1 336.9135024614 172.6023156993)" id="VI8nT6asKfgPWFiCKdNAV">
<path style="stroke: rgb(0,0,0); stroke-width: 0; stroke-dasharray: none; stroke-linecap: butt; stroke-dashoffset: 0; stroke-linejoin: miter; stroke-miterlimit: 4; fill: rgb(25,144,25); fill-rule: nonzero; opacity: 1;" transform=" translate(0, 0)" d="M 1.56587 44.61993 L -12.36918 -41.38046 C -12.36918 -41.38046 -12.79929 -43.31594 3.9749100000000013 -44.60627 C 20.749100000000002 -45.89659 7.203600000000002 44.619930000000004 7.203600000000002 44.619930000000004" stroke-linecap="round"/>
</g>
<g transform="matrix(1 0 0 1 362.7414972538 153.9059396554)" id="eYt-b4jS9yUEvV6ljpW4O">
<path style="stroke: rgb(0,0,0); stroke-width: 0; stroke-dasharray: none; stroke-linecap: butt; stroke-dashoffset: 0; stroke-linejoin: miter; stroke-miterlimit: 4; fill: rgb(25,144,25); fill-rule: nonzero; opacity: 1;" transform=" translate(0, 0)" d="M -20.60212 63.26757 L -9.07397 -62.346250000000005 C -9.07397 -62.346250000000005 -0.4931099999999997 -65.64658 16.33857 -62.346250000000005 C 33.170249999999996 -59.04592 -5.2662999999999975 63.813039999999994 -5.2662999999999975 63.813039999999994 z" stroke-linecap="round"/>
</g>
<g transform="matrix(1 0 0 1 370.0413304246 191.4210600872)" id="6OU-bJNdDrvxfB-l22EJz">
<path style="stroke: rgb(0,0,0); stroke-width: 0; stroke-dasharray: none; stroke-linecap: butt; stroke-dashoffset: 0; stroke-linejoin: miter; stroke-miterlimit: 4; fill: rgb(25,144,25); fill-rule: nonzero; opacity: 1;" transform=" translate(0, 0)" d="M -13.30228 26.29793 L 1.7462599999999995 -25.35671 C 1.7462599999999995 -25.35671 3.2528499999999996 -29.24021 11.74799 -21.2305 C 20.24314 -13.22079 -8.85413 26.297919999999998 -8.85413 26.297919999999998" stroke-linecap="round"/>
</g>
<g transform="matrix(1 0 0 1 337.8686719749 240.4822914943)" id="XoF8pm-3UIfk0H1PF0Wmm">
<path style="stroke: rgb(252,187,29); stroke-width: 0; stroke-dasharray: none; stroke-linecap: butt; stroke-dashoffset: 0; stroke-linejoin: miter; stroke-miterlimit: 4; fill: rgb(204,137,0); fill-rule: nonzero; opacity: 1;" transform=" translate(0, 0)" d="M 1.73323 1.69461 C -50.18039 2.14045 -49.67056 -0.5269900000000001 -49.67056 -1.2675300000000003 C -49.67056 -2.0080600000000004 -27.509580000000003 -1.7897200000000004 1.733229999999999 -1.2675300000000003 C 30.976049999999997 -0.7453400000000002 49.59697 -2.0080600000000004 49.59697 -1.2675300000000003 C 49.59697 -0.5270000000000002 53.64684 1.24877 1.733229999999999 1.69461 z" stroke-linecap="round"/>
</g>
<g transform="matrix(1 0 0 1 367.2780949236 91.9890926491)" id="2kWQ0bM-M0xrG5agqotfX">
<path style="stroke: rgb(6,82,6); stroke-width: 0; stroke-dasharray: none; stroke-linecap: butt; stroke-dashoffset: 0; stroke-linejoin: miter; stroke-miterlimit: 4; fill: rgb(7,123,7); fill-rule: nonzero; opacity: 1;" transform=" translate(0, 0)" d="M -0.07071 1.80572 C -0.07071 1.80572 -12.73283 2.4272 -13.63138 0.5346899999999999 C -14.52993 -1.35782 -10.42534 -1.97893 -0.94862 -1.89621 C 8.5281 -1.8135 13.54707 -0.2708599999999999 13.74997 0.5346899999999999 C 13.952869999999999 1.3402399999999999 -0.07071000000000005 1.80572 -0.07071000000000005 1.80572 z" stroke-linecap="round"/>
</g>
<g transform="matrix(1 0 0 1 334.2740292135 129.9390743925)" id="8MvozTQ66rUMsIsGO3HbN">
<path style="stroke: rgb(6,82,6); stroke-width: 0; stroke-dasharray: none; stroke-linecap: butt; stroke-dashoffset: 0; stroke-linejoin: miter; stroke-miterlimit: 4; fill: rgb(7,123,7); fill-rule: nonzero; opacity: 1;" transform=" translate(0, 0)" d="M -9.45321 0.92867 C -7.72151 -0.7192299999999999 -1.3471900000000012 -1.2639200000000002 3.6430100000000003 -1.7122000000000002 C 6.3711 -1.9572700000000003 8.02414 -2.2267200000000003 9.460460000000001 -1.0918700000000001 C 10.896790000000001 0.04296999999999995 5.794140000000001 0.7944799999999999 1.0657200000000007 1.29961 C -3.662699999999999 1.8047499999999999 -11.18492 2.5765700000000002 -9.453209999999999 0.9286699999999999 z" stroke-linecap="round"/>
</g>
<g transform="matrix(1 0 0 1 322.0245960877 175.0099637803)" id="JKVcHm-YP9Q6Jt4jgge9A">
<path style="stroke: rgb(6,82,6); stroke-width: 0; stroke-dasharray: none; stroke-linecap: butt; stroke-dashoffset: 0; stroke-linejoin: miter; stroke-miterlimit: 4; fill: rgb(7,123,7); fill-rule: nonzero; opacity: 1;" transform=" translate(0, 0)" d="M -5.15768 1.86966 C -5.41693 1.00115 -4.45718 -0.6447400000000001 -3.54432 -1.3568799999999999 C -2.6314599999999997 -2.0690299999999997 -0.048350000000000115 -2.07313 0.9024799999999997 -2.0166299999999997 C 1.8533099999999996 -1.9601299999999997 3.7116999999999996 -1.6533799999999996 5.085459999999999 -0.8220299999999996 C 6.45923 0.009320000000000439 -4.898430000000001 2.73817 -5.157680000000001 1.8696600000000003 z" stroke-linecap="round"/>
</g>
<g transform="matrix(1 0 0 1 377.6314579571 170.8011455947)" id="0SLwTZ-v2JWVALhkSJb__">
<path style="stroke: rgb(6,82,6); stroke-width: 0; stroke-dasharray: none; stroke-linecap: butt; stroke-dashoffset: 0; stroke-linejoin: miter; stroke-miterlimit: 4; fill: rgb(7,123,7); fill-rule: nonzero; opacity: 1;" transform=" translate(0, 0)" d="M -4.87446 -2.4001 C -7.28963 -5.01356 -4.81659 -6.2953 -2.17384 -5.36937 C 0.4689099999999997 -4.44344 2.0467899999999997 -3.00739 4.4619599999999995 -0.3939300000000001 C 6.877129999999999 2.21953 6.040089999999999 8.1323 2.8572199999999994 4.54434 C -0.32565000000000044 0.9563800000000002 -2.45928 0.21335999999999977 -4.874460000000001 -2.4001 z" stroke-linecap="round"/>
</g>
<g transform="matrix(0.9816204735 0 0 0.9816204735 338.887627561 184.7785633553)" id="bVCS3pN8IKU8SYc_7VOUY">
<path style="stroke: rgb(6,82,6); stroke-width: 0; stroke-dasharray: none; stroke-linecap: butt; stroke-dashoffset: 0; stroke-linejoin: miter; stroke-miterlimit: 4; fill: rgb(30,169,30); fill-rule: nonzero; opacity: 1;" transform=" translate(0, 0)" d="M 3.31264 -7.8751 C 2.71287 7.51859 3.15636 30.452389999999998 3.15636 30.452389999999998 C 3.15636 30.452389999999998 0.02986999999999984 9.412659999999999 -2.01108 -5.930209999999999 C -3.1174100000000005 -14.247029999999999 -5.94947 -23.94735 -5.99255 -26.58149 C -6.035629999999999 -29.215629999999997 2.69979 -31.36628 5.188930000000001 -30.05836 C 7.678070000000001 -28.75044 3.619520000000001 -15.75126 3.312650000000001 -7.8751 z" stroke-linecap="round"/>
</g>
<g transform="matrix(1 0 0 1 360.782863263 170.233974066)" id="Wq-yv6pJhSolDK5blH6a-">
<path style="stroke: rgb(6,82,6); stroke-width: 0; stroke-dasharray: none; stroke-linecap: butt; stroke-dashoffset: 0; stroke-linejoin: miter; stroke-miterlimit: 4; fill: rgb(30,169,30); fill-rule: nonzero; opacity: 1;" transform=" translate(0, 0)" d="M -3.16959 13.6285 C -7.24084 25.80009 -12.94306 46.496280000000006 -12.94306 46.496280000000006 C -12.94306 46.496280000000006 -9.483159999999998 24.496000000000006 -7.892829999999999 12.324400000000004 C -6.302499999999999 0.1528100000000041 -0.9515299999999991 -36.477729999999994 -0.5032999999999994 -38.36662 C 0.8874400000000007 -44.22739 12.8145 -47.673339999999996 12.94292 -46.12674 C 12.99202 -45.535419999999995 0.9016600000000015 1.4569100000000006 -3.16958 13.628509999999999 z" stroke-linecap="round"/>
</g>
<g transform="matrix(1 0 0 1 327.8348685222 201.2626964149)" id="w6bRRYMsc0ZeoXJ4qlexz">
<path style="stroke: rgb(6,82,6); stroke-width: 0; stroke-dasharray: none; stroke-linecap: butt; stroke-dashoffset: 0; stroke-linejoin: miter; stroke-miterlimit: 4; fill: rgb(30,169,30); fill-rule: nonzero; opacity: 1;" transform=" translate(0, 0)" d="M 3.54345 -2.06867 C 4.02042 4.66369 5.17035 15.467559999999999 5.17035 15.467559999999999 C 5.17035 15.467559999999999 2.60179 4.063199999999998 1.1568100000000001 -1.342410000000001 C -0.2881699999999998 -6.748030000000001 -5.4570799999999995 -12.28842 -5.15787 -14.55137 C -4.85865 -16.814320000000002 1.5594599999999996 -14.29228 2.4621399999999998 -13.322610000000001 C 3.36482 -12.35294 3.3199499999999995 -5.223380000000001 3.54345 -2.068670000000001 z" stroke-linecap="round"/>
</g>
<g transform="matrix(1 0 0 1 363.4738305068 203.2769259167)" id="Mrzy6yVY3gyzWe6Wph4NK">
<path style="stroke: rgb(6,82,6); stroke-width: 0; stroke-dasharray: none; stroke-linecap: butt; stroke-dashoffset: 0; stroke-linejoin: miter; stroke-miterlimit: 4; fill: rgb(30,169,30); fill-rule: nonzero; opacity: 1;" transform=" translate(0, 0)" d="M -6.73478 10.08438 L -3.7098899999999997 -3.615400000000001 C -3.7098899999999997 -3.615400000000001 -2.0836599999999996 -9.64333 0.9587600000000007 -10.002960000000002 C 4.001180000000001 -10.36259 5.621360000000001 -9.529890000000002 6.567500000000001 -7.528430000000002 C 7.5136400000000005 -5.526970000000002 4.284330000000001 -3.489130000000002 0.9587600000000007 0.9140699999999988 C -2.366809999999999 5.317269999999999 -6.734779999999999 10.08438 -6.734779999999999 10.08438 z" stroke-linecap="round"/>
</g>
<g transform="matrix(1 0 0 1 377.137020516 259.2119005236)" id="agj6OD0XcwAkyuIQzi5Qp">
<path style="stroke: rgb(6,82,6); stroke-width: 0; stroke-dasharray: none; stroke-linecap: butt; stroke-dashoffset: 0; stroke-linejoin: miter; stroke-miterlimit: 4; fill: rgb(204,137,0); fill-rule: nonzero; opacity: 1;" transform=" translate(0, 0)" d="M -35.84254 -1.16458 C -29.5522 -2.81242 28.87885 -0.47324 36.315039999999996 1.1745999999999999 C 43.75122999999999 2.82244 2.1948399999999992 0.2568699999999998 -11.531690000000005 0.2568699999999998 C -25.258220000000005 0.2568699999999998 -42.13288 0.4832599999999998 -35.84254 -1.1645800000000004 z" stroke-linecap="round"/>
</g>
<g transform="matrix(1 0 0 1 370.3642798269 279.4453898067)" id="JRAIvk4AI588dxQ2-MfBu">
<path style="stroke: rgb(6,82,6); stroke-width: 0; stroke-dasharray: none; stroke-linecap: butt; stroke-dashoffset: 0; stroke-linejoin: miter; stroke-miterlimit: 4; fill: rgb(204,137,0); fill-rule: nonzero; opacity: 1;" transform=" translate(0, 0)" d="M -43.50306 -0.63764 C -37.21272 -2.2854799999999997 34.32577 -1.46433 41.76196000000001 0.18351000000000006 C 49.19815000000001 1.83135 36.59092000000001 1.5117800000000001 22.864390000000007 1.5117800000000001 C 9.137860000000007 1.5117800000000001 -49.7934 1.0101900000000001 -43.50306 -0.63765 z" stroke-linecap="round"/>
</g>
<g transform="matrix(1 0 0 1 323.0496738114 370.4556991233)" id="iE3dnTaVdPNZA6ZEg4V7_">
<path style="stroke: rgb(6,82,6); stroke-width: 0; stroke-dasharray: none; stroke-linecap: butt; stroke-dashoffset: 0; stroke-linejoin: miter; stroke-miterlimit: 4; fill: rgb(204,137,0); fill-rule: nonzero; opacity: 1;" transform=" translate(0, 0)" d="M -36.55161 -1.2547 C -30.261269999999996 -2.90254 28.169780000000003 -0.56336 35.60597 1.0844799999999999 C 43.042159999999996 2.7323199999999996 23.40003 1.0844799999999999 9.67351 1.0844799999999999 C -4.05302 1.0844799999999999 -42.84194 0.39313999999999993 -36.5516 -1.2547 z" stroke-linecap="round"/>
</g>
<g transform="matrix(1 0 0 1 339.6227441365 314.7969849776)" id="XJRLrzdfBlQpJcPlKfKVu">
<path style="stroke: rgb(6,82,6); stroke-width: 0; stroke-dasharray: none; stroke-linecap: butt; stroke-dashoffset: 0; stroke-linejoin: miter; stroke-miterlimit: 4; fill: rgb(204,137,0); fill-rule: nonzero; opacity: 1;" transform=" translate(0, 0)" d="M -55.03402 -2.76159 C -48.74368 -4.40943 49.00555 1.11157 56.441739999999996 2.75941 C 63.87792999999999 4.4072499999999994 -23.26342000000001 -1.1427100000000001 -36.989940000000004 -1.1427100000000001 C -50.71647 -1.1427100000000001 -61.324360000000006 -1.11375 -55.03401000000001 -2.76159 z" stroke-linecap="round"/>
</g>
<g transform="matrix(1 0 0 1 364.8581632466 414.9910701594)" id="PYuk0O8nflGv0RGdJeMkM">
<path style="stroke: rgb(6,82,6); stroke-width: 0; stroke-dasharray: none; stroke-linecap: butt; stroke-dashoffset: 0; stroke-linejoin: miter; stroke-miterlimit: 4; fill: rgb(204,137,0); fill-rule: nonzero; opacity: 1;" transform=" translate(0, 0)" d="M -35.25152 -1.13821 C -28.96118 -2.78605 29.46987 -0.44687 36.90606 1.2009699999999999 C 44.34224999999999 2.84881 -7.414660000000005 -0.10905000000000009 -21.14119 -0.10905000000000009 C -34.867720000000006 -0.10905000000000009 -41.54186 0.5096299999999999 -35.25152 -1.1382100000000002 z" stroke-linecap="round"/>
</g>
<g transform="matrix(0.9998476952 0.0174524064 -0.0174524064 0.9998476952 293.7149125065 369.6832255202)" id="_oN-7LlHtvVnRoZnmCTAc">
<path style="stroke: rgb(6,82,6); stroke-width: 0; stroke-dasharray: none; stroke-linecap: butt; stroke-dashoffset: 0; stroke-linejoin: miter; stroke-miterlimit: 4; fill: rgb(206,172,103); fill-rule: nonzero; opacity: 1;" transform=" translate(0, 0)" d="M 7.51172 -1.17566 L 7.902360000000001 1.17567 C 7.902360000000001 1.17567 -7.677879999999999 1.17341 -7.900019999999999 0.01601000000000008 C -8.12216 -1.1414 7.511720000000001 -1.1756499999999999 7.511720000000001 -1.1756499999999999 z" stroke-linecap="round"/>
</g>
</svg>