<svg xmlns="http://www.w3.org/2000/svg" xmlns:xlink="http://www.w3.org/1999/xlink" version="1.1" xml:space="preserve" viewBox="160.92 83.6 291.2 415.06">
<desc>Created with Fabric.js 5.3.0</desc>
<defs>
</defs>
<g transform="matrix(0.9973738335 0 0 1.0006100591 307.1078951976 291.1302449977)" id="sy2yMzsFrYCry55HO107O">
<path style="stroke: rgb(0,0,0); stroke-width: 0; stroke-dasharray: none; stroke-linecap: butt; stroke-dashoffset: 0; stroke-linejoin: miter; stroke-miterlimit: 4; fill: rgb(212,166,92); fill-rule: nonzero; opacity: 1;" transform=" translate(0, 0)" d="M 88.10972 -175.14105 C 66.80448 -194.03140000000002 39.61801 -206.0603 5.378489999999999 -207.28464000000002 C -30.35031 -208.56223000000003 -59.875609999999995 -199.47426000000002 -83.04007 -181.99068000000003 C -85.30622 -180.28028000000003 -87.5115 -178.48953000000003 -89.65575 -176.62028000000004 C -136.41332 -135.85931000000005 -154.154 -57.76876000000004 -141.35032 38.52706999999995 C -121.09419000000001 190.87236999999996 -33.49305000000001 207.40319999999994 40.16941 207.40319999999994 C 113.83187 207.40319999999994 161.85527000000002 117.24252999999995 140.13731 18.90718999999993 C 118.41935000000001 -79.42814000000007 138.63776000000001 -130.34022000000007 88.10972000000001 -175.14106000000007 z" stroke-linecap="round"/>
</g>
<g transform="matrix(1 0 0 1 252.3507264467 262.806215579)" id="vKQjl-N5TTBKlQ-MhZtRk">
<path style="stroke: rgb(0,0,0); stroke-width: 0; stroke-dasharray: none; stroke-linecap: butt; stroke-dashoffset: 0; stroke-linejoin: miter; stroke-miterlimit: 4; fill: rgb(186,140,65); fill-rule: nonzero; opacity: 1;" transform=" translate(0, 0)" d="M 3.21694 -6.00725 C 8.50149 -7.2267600000000005 13.77711 0.17384000000000022 12.5576 3.8323799999999997 C 11.338090000000001 7.490919999999999 -7.94023 6.2714 -12.00527 3.8323799999999997 C -16.07031 1.3933599999999995 -2.06761 -4.787730000000001 3.216940000000001 -6.00725 z" stroke-linecap="round"/>
</g>
<g transform="matrix(1 0 0 1 244.0870501293 157.1828894571)" id="aUfg73kyZpEp5q31HJzhE">
<path style="stroke: rgb(0,0,0); stroke-width: 0; stroke-dasharray: none; stroke-linecap: butt; stroke-dashoffset: 0; stroke-linejoin: miter; stroke-miterlimit: 4; fill: rgb(160,116,44); fill-rule: nonzero; opacity: 1;" transform=" translate(0, 0)" d="M -4.86471 -7.6442 C 0.41984000000000066 -8.86371 12.61496 -1.54664 11.39545 2.1119000000000003 C 10.17594 5.770440000000001 -5.677720000000001 9.42897 -9.74276 6.98995 C -13.8078 4.55093 -10.14926 -6.42468 -4.8647100000000005 -7.6442 z" stroke-linecap="round"/>
</g>
<g transform="matrix(1 0 0 1.8168652783 400.1289746828 292.0750604119)" id="GLe3tKEIlAW_qjboXHHao">
<path style="stroke: rgb(0,0,0); stroke-width: 0; stroke-dasharray: none; stroke-linecap: butt; stroke-dashoffset: 0; stroke-linejoin: miter; stroke-miterlimit: 4; fill: rgb(202,156,82); fill-rule: nonzero; opacity: 1;" transform=" translate(0, 0)" d="M 0.87419 -3.97905 C 6.15874 -5.1985600000000005 12.18948 -4.7415199999999995 10.96997 -1.08298 C 9.75046 2.57556 -6.103200000000001 6.23409 -10.16824 3.79507 C -14.23328 1.3560499999999998 -4.410360000000001 -2.7595400000000003 0.8741899999999987 -3.97905 z" stroke-linecap="round"/>
</g>
<g transform="matrix(0.5689742942 0 0 0.5689742942 358.8646374676 161.60932901)" id="_kcNtPAbrvImEK3ZYMiLd">
<path style="stroke: rgb(0,0,0); stroke-width: 0; stroke-dasharray: none; stroke-linecap: butt; stroke-dashoffset: 0; stroke-linejoin: miter; stroke-miterlimit: 4; fill: rgb(179,124,35); fill-rule: nonzero; opacity: 1;" transform=" translate(0, 0)" d="M -4.86471 -7.6442 C 0.41984000000000066 -8.86371 12.61496 -1.54664 11.39545 2.1119000000000003 C 10.17594 5.770440000000001 -5.677720000000001 9.42897 -9.74276 6.98995 C -13.8078 4.55093 -10.14926 -6.42468 -4.8647100000000005 -7.6442 z" stroke-linecap="round"/>
</g>
<g transform="matrix(1 0 0 1 355.7994273609 345.980378462)" id="RvV_9lbkA669c9ccUFV6V">
<path style="stroke: rgb(0,0,0); stroke-width: 0; stroke-dasharray: none; stroke-linecap: butt; stroke-dashoffset: 0; stroke-linejoin: miter; stroke-miterlimit: 4; fill: rgb(160,116,44); fill-rule: nonzero; opacity: 1;" transform=" translate(0, 0)" d="M -1.7995 -5.69061 C 3.48505 -6.910120000000001 7.16954 -1.7207100000000004 5.95002 1.93783 C 4.730510000000001 5.59637 0.5980699999999999 7.12724 -3.46697 4.688219999999999 C -7.53201 2.249199999999999 -7.08406 -4.47109 -1.7994999999999999 -5.690610000000001 z" stroke-linecap="round"/>
</g>
<g transform="matrix(1 0 0 1 194.9480410691 308.4506324569)" id="5BcfqHUexmzRqLCVBe0rL">
<path style="stroke: rgb(0,0,0); stroke-width: 0; stroke-dasharray: none; stroke-linecap: butt; stroke-dashoffset: 0; stroke-linejoin: miter; stroke-miterlimit: 4; fill: rgb(158,109,30); fill-rule: nonzero; opacity: 1;" transform=" translate(0, 0)" d="M -2.43302 -11.19158 C 2.8515300000000003 -12.41109 8.33934 -0.8257300000000001 7.119829999999999 2.8328100000000003 C 5.900319999999999 6.491350000000001 -0.8070000000000004 13.19866 -4.872040000000001 10.759640000000001 C -8.937080000000002 8.320620000000002 -7.717570000000001 -9.972069999999999 -2.433020000000001 -11.191579999999998 z" stroke-linecap="round"/>
</g>
<g transform="matrix(1 0 0 1 250.9543593882 431.4447115374)" id="Vtr0ViP2wA6y6EqavDD1m">
<path style="stroke: rgb(0,0,0); stroke-width: 0; stroke-dasharray: none; stroke-linecap: butt; stroke-dashoffset: 0; stroke-linejoin: miter; stroke-miterlimit: 4; fill: rgb(160,116,44); fill-rule: nonzero; opacity: 1;" transform=" translate(0, 0)" d="M 8.4227 -5.33325 C 13.707250000000002 -6.552759999999999 5.832820000000001 -1.5831099999999996 4.61331 2.0754300000000008 C 3.3938 5.733970000000001 -5.53584 6.5756000000000006 -9.60088 4.13658 C -13.66592 1.6975600000000002 3.138159999999999 -4.11373 8.422709999999999 -5.33325 z" stroke-linecap="round"/>
</g>
<g transform="matrix(1 0 0 1 383.8460269525 248.8506183621)" id="bhVLF6xV9eR9AeK6YYWcu">
<path style="stroke: rgb(0,0,0); stroke-width: 0; stroke-dasharray: none; stroke-linecap: butt; stroke-dashoffset: 0; stroke-linejoin: miter; stroke-miterlimit: 4; fill: rgb(160,116,44); fill-rule: nonzero; opacity: 1;" transform=" translate(0, 0)" d="M -2.67678 -2.49777 C 2.6077700000000004 -3.71728 9.05068 -3.92233 7.831169999999999 -0.26380000000000026 C 6.611659999999999 3.3947399999999996 -1.7198800000000007 4.39841 -5.7849200000000005 1.95938 C -9.84996 -0.4796400000000003 -7.96134 -1.27826 -2.6767800000000004 -2.49778 z" stroke-linecap="round"/>
</g>
<g transform="matrix(1 0 0 1 214.6119086337 285.1450781885)" id="lpm6lzQxQDqYRT-zRIz7H">
<path style="stroke: rgb(0,0,0); stroke-width: 0; stroke-dasharray: none; stroke-linecap: butt; stroke-dashoffset: 0; stroke-linejoin: miter; stroke-miterlimit: 4; fill: rgb(229,191,126); fill-rule: nonzero; opacity: 1;" transform=" translate(0, 0)" d="M 36.34245 195.49512 C 15.06521 183.91597 -3.4167600000000036 174.56848 -19.663870000000003 148.63797999999997 C -35.910970000000006 122.70747999999998 -49.65486 77.46197999999997 -52.512 39.176269999999974 C -55.36914 0.8905599999999723 -52.43908 -23.592460000000024 -50.15336 -51.02104000000003 C -47.86765 -78.44961000000004 -41.50963 -106.02370000000002 -23.20299 -139.16656000000003 C -4.896349999999998 -172.30942000000005 23.121609999999997 -186.12093000000004 46.57114 -195.09410000000003 C 70.02067 -204.06726000000003 29.31158 -181.14358000000001 14.58795 -160.10334000000003 C -0.1356800000000007 -139.06310000000002 -19.222810000000003 -122.92330000000004 -30.6398 -66.88082000000003 C -42.05679 -10.838350000000027 -41.06327 32.27869999999997 -26.95559 93.13583999999997 C -12.84791 153.99298 57.619690000000006 207.07426999999996 36.34245 195.49512 z" stroke-linecap="round"/>
</g>
</svg>